PathFileType	4	(X/Y/Z)	c:/Users/goper/Files/vsCode/490R/osim_files/A01/A01_Slow_03.trc
DataRate	CameraRate	NumFrames	NumMarkers	Units                	OrigDataRate	OrigDataStartFrame	OrigNumFrames
120.00	120.00	9	36	mm	120.0	1258	1676
                Frame#	Time	Mobility_markerset:LPSIS			Mobility_markerset:LASIS			Mobility_markerset:LTH1			Mobility_markerset:LTH2			Mobility_markerset:LTH3			Mobility_markerset:LTH4			Mobility_markerset:LLFE			Mobility_markerset:LMFE			Mobility_markerset:LSH1			Mobility_markerset:LSH2			Mobility_markerset:LSH3			Mobility_markerset:LSH4			Mobility_markerset:LLMAL			Mobility_markerset:LMMAL			Mobility_markerset:LCAL			Mobility_markerset:LMTP5			Mobility_markerset:LTOE			Mobility_markerset:LMTP1			Mobility_markerset:RPSIS			Mobility_markerset:RASIS			Mobility_markerset:RTH1			Mobility_markerset:RTH2			Mobility_markerset:RTH3			Mobility_markerset:RTH4			Mobility_markerset:RLFE			Mobility_markerset:RMFE			Mobility_markerset:RSH1			Mobility_markerset:RSH2			Mobility_markerset:RSH3			Mobility_markerset:RSH4			Mobility_markerset:RLMAL			Mobility_markerset:RMMAL			Mobility_markerset:RCAL			Mobility_markerset:RMTP1			Mobility_markerset:RTOE			Mobility_markerset:RMTP5		
		X1	Y1	Z1	X2	Y2	Z2	X3	Y3	Z3	X4	Y4	Z4	X5	Y5	Z5	X6	Y6	Z6	X7	Y7	Z7	X8	Y8	Z8	X9	Y9	Z9	X10	Y10	Z10	X11	Y11	Z11	X12	Y12	Z12	X13	Y13	Z13	X14	Y14	Z14	X15	Y15	Z15	X16	Y16	Z16	X17	Y17	Z17	X18	Y18	Z18	X19	Y19	Z19	X20	Y20	Z20	X21	Y21	Z21	X22	Y22	Z22	X23	Y23	Z23	X24	Y24	Z24	X25	Y25	Z25	X26	Y26	Z26	X27	Y27	Z27	X28	Y28	Z28	X29	Y29	Z29	X30	Y30	Z30	X31	Y31	Z31	X32	Y32	Z32	X33	Y33	Z33	X34	Y34	Z34	X35	Y35	Z35	X36	Y36	Z36

1258	10.47500	0.00000	0.00000	0.00000	-4193.76562	994.05005	1088.96997	-1326.70325	1337.47388	3046.28467	0.00000	0.00000	0.00000	0.00000	0.00000	0.00000	0.00000	0.00000	0.00000	0.00000	0.00000	0.00000	0.00000	0.00000	0.00000	-4356.79395	1043.53955	904.91199	0.00000	0.00000	0.00000	0.00000	0.00000	0.00000	0.00000	0.00000	0.00000	-4267.67969	90.05337	1246.94873	0.00000	0.00000	0.00000	0.00000	0.00000	0.00000	-4160.93701	54.73400	1346.07422	-4191.10840	87.02179	1407.00427	0.00000	0.00000	0.00000	-4450.63525	1050.94250	943.94403	0.00000	0.00000	0.00000	-4566.33643	684.11957	1056.31689	-4565.07959	642.54120	1046.59705	-4581.86914	690.32916	995.86700	-4576.85205	646.56323	995.73328	-4548.74951	501.27951	989.14813	0.00000	0.00000	0.00000	-4576.25293	349.25769	828.95306	-4580.27148	306.42285	815.56445	-4581.44482	326.13086	885.15833	-4585.08496	286.06644	864.98669	-4567.28125	125.53172	771.70203	0.00000	0.00000	0.00000	-4517.15039	106.52198	713.86676	0.00000	0.00000	0.00000	-4534.30469	54.67825	944.38348	-4597.20361	35.19254	884.59283
1259	10.48333	0.00000	0.00000	0.00000	-4190.63770	993.12329	1095.46204	-1326.91907	1337.27795	3045.07080	0.00000	0.00000	0.00000	0.00000	0.00000	0.00000	0.00000	0.00000	0.00000	0.00000	0.00000	0.00000	-4287.19824	564.54419	1245.63879	-4354.84473	1042.81970	912.09100	0.00000	0.00000	0.00000	0.00000	0.00000	0.00000	0.00000	0.00000	0.00000	-4267.54346	89.72541	1247.79199	0.00000	0.00000	0.00000	0.00000	0.00000	0.00000	-4161.15137	53.07032	1346.91394	-4191.38281	84.67403	1407.99060	0.00000	0.00000	0.00000	-4448.47168	1050.24146	951.75311	0.00000	0.00000	0.00000	-4564.01025	683.51917	1064.20068	-4562.86426	641.96619	1054.43640	-4579.80908	689.85925	1003.81665	-4574.83252	646.08057	1003.61487	-4547.00928	500.64166	996.51324	0.00000	0.00000	0.00000	-4575.54785	350.86368	834.18085	-4579.77246	308.23090	820.15271	-4580.60107	326.89749	890.02228	-4584.44922	287.13092	869.28601	-4567.66211	127.96792	773.49701	0.00000	0.00000	0.00000	-4517.59766	109.80833	715.35840	0.00000	0.00000	0.00000	-4534.53271	54.80470	944.54559	-4597.13086	35.33333	884.87152
1260	10.49167	0.00000	0.00000	0.00000	-4187.60693	992.20331	1102.08191	-1327.42480	1337.10498	3043.88623	0.00000	0.00000	0.00000	0.00000	0.00000	0.00000	0.00000	0.00000	0.00000	0.00000	0.00000	0.00000	-4285.65967	564.40118	1250.17224	-4352.70410	1042.25610	919.34546	0.00000	0.00000	0.00000	0.00000	0.00000	0.00000	0.00000	0.00000	0.00000	-4267.36230	89.40643	1248.50305	0.00000	0.00000	0.00000	0.00000	0.00000	0.00000	-4161.11621	51.21154	1347.51196	-4190.76318	82.26351	1408.89490	0.00000	0.00000	0.00000	-4446.07227	1049.56555	959.67480	0.00000	0.00000	0.00000	-4561.57324	682.98871	1072.37769	-4560.70557	641.13446	1062.67712	-4577.68213	689.38782	1012.07190	-4572.74512	645.60364	1011.82617	-4545.25879	500.09573	1004.18695	0.00000	0.00000	0.00000	-4574.73535	352.54376	839.68903	-4579.24219	310.18845	825.01654	-4579.75635	327.82263	895.17261	-4583.82764	288.37979	873.84418	-4568.02881	130.60701	775.56421	0.00000	0.00000	0.00000	-4518.05762	113.39854	717.03809	0.00000	0.00000	0.00000	0.00000	0.00000	0.00000	-4597.07227	35.54591	885.10303
1261	10.50000	0.00000	0.00000	0.00000	-4184.16943	991.82916	1108.74255	-1327.97424	1336.87170	3042.77686	0.00000	0.00000	0.00000	0.00000	0.00000	0.00000	0.00000	0.00000	0.00000	0.00000	0.00000	0.00000	-4284.27490	564.05957	1254.81152	-4350.45898	1041.90991	926.61389	0.00000	0.00000	0.00000	0.00000	0.00000	0.00000	0.00000	0.00000	0.00000	-4267.27441	89.03778	1249.19666	0.00000	0.00000	0.00000	0.00000	0.00000	0.00000	-4161.00195	49.61645	1347.85632	-4189.79639	80.13428	1408.83740	0.00000	0.00000	0.00000	-4443.60156	1049.03259	967.62030	0.00000	0.00000	0.00000	-4558.94775	682.49445	1080.87744	-4558.47559	640.42517	1071.91199	-4575.46191	688.90845	1020.67535	-4570.57715	645.11084	1020.41772	-4543.40527	499.57364	1012.29480	0.00000	0.00000	0.00000	-4573.94922	354.47369	845.50873	-4578.62646	312.31702	830.15979	-4578.90723	328.88956	900.59265	-4583.20605	289.77927	878.67566	-4568.39111	133.47476	777.85907	0.00000	0.00000	0.00000	-4518.50684	117.29553	719.04877	0.00000	0.00000	0.00000	0.00000	0.00000	0.00000	-4596.97607	35.83905	885.41675
1262	10.50833	0.00000	0.00000	0.00000	-4181.16406	991.32751	1115.52893	-1328.57935	1336.71252	3041.55176	0.00000	0.00000	0.00000	0.00000	0.00000	0.00000	0.00000	0.00000	0.00000	0.00000	0.00000	0.00000	-4282.74854	563.60522	1259.43079	-4348.09473	1041.77417	933.90417	0.00000	0.00000	0.00000	0.00000	0.00000	0.00000	0.00000	0.00000	0.00000	-4267.13086	88.79285	1249.97534	0.00000	0.00000	0.00000	0.00000	0.00000	0.00000	-4161.13818	48.27081	1348.59521	-4190.69287	78.55065	1410.21130	0.00000	0.00000	0.00000	-4440.97949	1048.60364	975.59650	0.00000	0.00000	0.00000	-4556.20264	682.06848	1089.76306	-4555.74023	640.22021	1080.02966	-4573.18604	688.47510	1029.69177	-4568.34277	644.64539	1029.40735	-4541.46191	499.05328	1020.82959	0.00000	0.00000	0.00000	-4573.00195	356.53003	851.62640	-4577.94727	314.67850	835.64301	-4578.00879	330.12704	906.29108	-4582.54297	291.41290	883.79596	-4568.78662	136.62115	780.46173	0.00000	0.00000	0.00000	-4518.92725	121.59247	721.34363	0.00000	0.00000	0.00000	0.00000	0.00000	0.00000	-4596.87891	36.10636	885.79712
1263	10.51667	0.00000	0.00000	0.00000	-4177.92139	991.39392	1122.17493	-1329.14111	1336.47754	3040.24731	0.00000	0.00000	0.00000	0.00000	0.00000	0.00000	0.00000	0.00000	0.00000	0.00000	0.00000	0.00000	-4281.12793	563.17389	1264.05371	-4345.49121	1041.78369	941.28961	0.00000	0.00000	0.00000	0.00000	0.00000	0.00000	0.00000	0.00000	0.00000	-4266.93164	88.64883	1250.72754	0.00000	0.00000	0.00000	0.00000	0.00000	0.00000	-4161.30908	46.47087	1348.92712	-4190.87842	76.80848	1411.27722	0.00000	0.00000	0.00000	-4438.17236	1048.26868	983.60101	0.00000	0.00000	0.00000	-4553.29932	681.73578	1099.02722	-4552.75391	640.22430	1089.35815	-4570.85986	688.08545	1039.09839	-4566.06787	644.26709	1038.85120	-4539.46875	498.59457	1029.79749	0.00000	0.00000	0.00000	-4572.00146	358.81851	858.14685	-4577.21240	317.26978	841.47107	-4577.13721	331.56744	912.32855	-4581.93213	293.27734	889.24335	-4569.20850	140.06673	783.35535	0.00000	0.00000	0.00000	-4519.37305	126.31612	724.03339	0.00000	0.00000	0.00000	0.00000	0.00000	0.00000	-4596.78125	36.54455	886.26453
1264	10.52500	0.00000	0.00000	0.00000	-4174.36035	991.89075	1128.85815	-1329.72009	1336.14758	3038.85620	0.00000	0.00000	0.00000	0.00000	0.00000	0.00000	0.00000	0.00000	0.00000	0.00000	0.00000	0.00000	-4279.34961	562.82422	1268.77258	-4342.79688	1042.06567	948.64435	0.00000	0.00000	0.00000	0.00000	0.00000	0.00000	0.00000	0.00000	0.00000	-4266.80518	88.60985	1251.32227	0.00000	0.00000	0.00000	0.00000	0.00000	0.00000	-4161.51660	45.97341	1350.34839	-4189.98584	75.10323	1415.02209	0.00000	0.00000	0.00000	-4437.86035	1049.58740	989.68054	0.00000	0.00000	0.00000	-4550.26172	681.47461	1108.72327	-4549.97314	639.99890	1099.16895	-4568.45215	687.71826	1048.95630	-4563.72314	643.88971	1048.78796	-4537.50049	498.26572	1039.29846	0.00000	0.00000	0.00000	-4570.92480	361.38654	865.03668	-4576.40820	320.12628	847.66180	-4576.29150	333.26022	918.75647	-4581.34033	295.40271	895.04749	-4569.63770	143.86293	786.60522	0.00000	0.00000	0.00000	-4519.79346	131.47655	727.18707	0.00000	0.00000	0.00000	0.00000	0.00000	0.00000	-4596.75781	37.15707	886.80737
1265	10.53333	0.00000	0.00000	0.00000	-4170.84912	992.49268	1135.58508	-1330.33350	1335.94751	3037.60767	0.00000	0.00000	0.00000	0.00000	0.00000	0.00000	0.00000	0.00000	0.00000	0.00000	0.00000	0.00000	-4277.40088	562.53320	1273.51331	-4340.03125	1042.51990	955.95990	0.00000	0.00000	0.00000	0.00000	0.00000	0.00000	0.00000	0.00000	0.00000	-4266.59570	88.59503	1251.83862	0.00000	0.00000	0.00000	0.00000	0.00000	0.00000	-4161.52148	45.04459	1350.99707	-4191.94922	73.39009	1414.30420	0.00000	0.00000	0.00000	-4434.77539	1049.29871	997.77118	0.00000	0.00000	0.00000	-4547.14600	681.35077	1118.86609	-4547.12939	639.85913	1109.47546	-4565.90186	687.37512	1059.26208	-4561.31104	643.55786	1059.22815	-4535.47168	498.00735	1049.40454	0.00000	0.00000	0.00000	-4569.64307	364.18091	872.46716	-4575.46338	323.27063	854.39783	-4575.44629	335.19040	925.66437	-4580.79492	297.81927	901.29590	-4570.06348	147.95934	790.35229	0.00000	0.00000	0.00000	-4520.43994	136.74702	729.93042	0.00000	0.00000	0.00000	0.00000	0.00000	0.00000	-4596.73438	37.85412	887.49243
1266	10.54167	0.00000	0.00000	0.00000	-4170.67432	992.50165	1143.59314	-1331.04626	1335.68188	3036.27246	0.00000	0.00000	0.00000	0.00000	0.00000	0.00000	0.00000	0.00000	0.00000	0.00000	0.00000	0.00000	-4275.44043	562.28400	1278.24426	-4337.21533	1043.17615	963.20831	0.00000	0.00000	0.00000	0.00000	0.00000	0.00000	0.00000	0.00000	0.00000	-4266.41357	88.59928	1252.38757	0.00000	0.00000	0.00000	0.00000	0.00000	0.00000	-4161.47803	44.64083	1351.56677	-4192.00293	72.26316	1414.99463	0.00000	0.00000	0.00000	-4431.51025	1049.09998	1005.86328	0.00000	0.00000	0.00000	-4543.86035	681.30273	1129.50671	-4544.19824	639.83679	1120.37036	-4563.24463	687.03174	1070.04053	-4558.79785	643.22272	1070.22131	-4533.43018	497.75882	1060.16138	0.00000	0.00000	0.00000	-4568.26611	367.15088	880.57141	-4574.44434	326.70374	861.73206	-4574.57861	337.33820	933.20605	-4580.19971	300.43930	908.15460	-4570.45752	152.41010	794.68146	0.00000	0.00000	0.00000	-4520.71484	143.37711	735.16718	0.00000	0.00000	0.00000	0.00000	0.00000	0.00000	-4596.49854	38.53536	888.33130
